<?xml version="1.0" encoding="UTF-8"?>
<svg width="209px" height="45px" viewBox="0 0 209 45" version="1.1" xmlns="http://www.w3.org/2000/svg" xmlns:xlink="http://www.w3.org/1999/xlink">
    <!-- Generator: Sketch 61 (89581) - https://sketch.com -->
    <title>Group 18</title>
    <desc>Created with Sketch.</desc>
    <defs>
        <polygon id="path-1" points="0.277329503 0.0981088419 24.6898551 0.0981088419 24.6898551 32.9999864 0.277329503 32.9999864"></polygon>
    </defs>
    <g id="Page-1" stroke="none" stroke-width="1" fill="none" fill-rule="evenodd">
        <g id="New-12grid" transform="translate(-855.000000, -23.000000)">
            <g id="Group-14">
                <g id="Group-18" transform="translate(855.000000, 23.000000)">
                    <path d="M22.9483424,2 L36.35,2 L36.35,2.77285234 C29.6720522,2.72732404 29.7599151,13.5457517 29.7599151,13.5457517 L29.0094193,13.5457517 C29.0094193,13.5457517 29.0522525,2.72732404 22.9483424,2.77285234 L22.9483424,2 Z M14.1496034,33.2279002 L14.1496034,34 L0.705112625,34 L0.705112625,33.2279002 C7.38086388,33.2279002 7.33803071,22.4090963 7.33803071,22.4090963 L8.09072304,22.4090963 C8.09072304,22.4090963 8.0453272,33.2279002 14.1496034,33.2279002 L14.1496034,33.2279002 Z M11.1856943,2 L29.7599151,25.5460339 L29.7599151,34 L27.4158057,34 L5.61298876,6.00009407 C2.78270453,2.36385015 1.50063812,2.86315641 0.35,2.77285234 L0.35,2 L11.1856943,2 Z" id="Fill-1" fill="#000000"></path>
                    <path d="M57.8293437,27.5705176 L58.5885608,27.9837899 C57.8726747,30.3714162 55.233562,34 49.2394506,34 C43.377554,34 39.35,28.4426856 39.35,23.0686252 C39.35,17.0067917 43.1534924,12.5056597 48.7450336,12.0456234 L48.7450336,12.7805409 C46.5544146,13.6538495 45.1226423,17.8789596 45.1226423,21.783185 L53.891044,21.783185 C53.891044,16.8680204 52.548526,13.5622224 50.5793761,12.7805409 L50.5793761,12 C56.5301567,12.2756416 59.35,15.7198306 59.35,22.5637259 L45.1226423,22.5637259 C45.4792891,27.0644777 47.7158315,29.4076212 50.7145538,30.0957746 C53.1318269,30.647438 56.7086653,29.7296466 57.8293437,27.5705176" id="Fill-3" fill="#000000"></path>
                    <path d="M94.35,12 L94.35,12.7580801 C93.5526867,12.7580801 91.3378868,12.8481344 88.857927,19.6693791 L88.1490003,19.0895622 C88.6360436,17.5737711 89.8316468,12.7580801 85.6668401,12.7580801 L85.6668401,12 L94.35,12 Z M81.1484869,15.6556881 L86.2419032,26.4909928 L83.7619435,33 L83.0533835,33 L74.6350167,14.675794 C73.61582,12.7580801 72.5537136,12.7580801 71.79931,12.7580801 L71.79931,12 L82.2989799,12 L82.2989799,12.7580801 C79.5087501,12.7580801 81.1484869,15.6556881 81.1484869,15.6556881 L81.1484869,15.6556881 Z M68.6991769,15.6556881 L73.7925932,26.4467038 L71.3555432,33 L70.6037068,33 C62.7607699,15.8793476 62.1402298,14.675794 62.1402298,14.675794 C61.16651,12.7580801 60.0585599,12.7580801 59.35,12.7580801 L59.35,12 L69.8063935,12 L69.8063935,12.7580801 C67.1929369,12.7580801 68.6991769,15.6556881 68.6991769,15.6556881 L68.6991769,15.6556881 Z" id="Fill-5" fill="#000000"></path>
                    <path d="M104.852745,12.8276851 L104.852745,12 C109.32134,12.1387713 111.307216,13.3322043 111.307216,13.3322043 L111.307216,18.4762464 L110.539165,18.4762464 C109.997121,17.0067917 108.735215,13.3322043 104.852745,12.8276851 M103.996906,33.1738357 L103.996906,34 C99.1685671,33.7699819 96.7762514,31.8872548 96.7762514,31.8872548 L96.7762514,26.1010628 L97.5420614,26.1010628 C98.1745084,27.7997753 99.4823625,32.5761687 103.996906,33.1738357 M111.261267,31.519606 C111.261267,31.519606 109.773355,33.678735 105.890511,33.9543766 L105.890511,33.0822086 C108.23912,32.3472911 108.329523,28.8559578 105.258811,26.7903569 L100.702802,23.9879374 C96.3242367,21.2775253 95.1497457,17.5569342 97.6320908,14.2503759 C97.6320908,14.2503759 99.1226185,12.2760218 102.958766,12 L102.958766,12.8733086 C100.702802,13.5154584 100.114436,16.5475158 103.59084,18.7978916 L108.146849,21.6915579 C112.16567,24.216815 113.517232,28.2130476 111.261267,31.519606" id="Fill-7" fill="#000000"></path>
                    <path d="M139.35,22.7721203 C139.35,29.5033879 135.090857,32.6939017 129.324233,33 L129.324233,32.1699888 C131.898153,31.7332741 133.00719,29.1535096 133.00719,23.1219986 C133.00719,16.1284126 131.365301,13.8547464 127.72788,13.8547464 C124.711814,13.8547464 123.112891,16.3024472 123.112891,19.4061246 L123.112891,24.9575028 C123.112891,29.8525426 125.242095,31.8201105 127.505339,32.213407 L127.505339,33 C125.199129,32.8256036 123.246563,32.0813433 121.960521,30.7708374 C120.361966,32.1265706 117.61361,33.0871982 117.61361,32.3874416 L117.61361,5.15771989 C117.61361,3.67100849 117.169261,3.01503191 115.35,2.3605026 L115.35,1.61624235 L123.112891,0 L123.112891,15.7351161 C124.532238,13.1119334 127.816383,12.0192422 129.945587,12.0192422 C134.914219,12.0192422 139.35,15.8657325 139.35,22.7721203" id="Fill-9" fill="#000000"></path>
                    <path d="M161.829316,27.5705176 L162.588547,27.9837899 C161.872647,30.3714162 159.233115,34 153.239263,34 C147.377258,34 143.35,28.4426856 143.35,23.0686252 C143.35,17.0067917 147.153192,12.5056597 152.744837,12.0456234 L152.744837,12.7805409 C150.554178,13.6538495 149.122008,17.8789596 149.122008,21.783185 L157.890573,21.783185 C157.890573,16.8680204 156.5484,13.5622224 154.579214,12.7805409 L154.579214,12 C160.530104,12.2756416 163.35,15.7198306 163.35,22.5637259 L149.122008,22.5637259 C149.479032,27.0644777 151.715616,29.4076212 154.714024,30.0957746 C157.12949,30.647438 160.710838,29.7296466 161.829316,27.5705176" id="Fill-11" fill="#000000"></path>
                    <path d="M182.208129,12.802355 C183.60063,14.0069947 183.736085,16.1472232 182.523321,17.4839895 C181.309812,18.8661511 179.241527,19.0447803 177.802881,17.8416169 C177.127469,17.2171529 176.76911,16.4590861 176.76911,15.6556239 C176.76911,15.2994728 175.778506,15.2994728 174.654681,16.3247452 L174.206639,15.7013884 C176.139098,13.1592443 177.621283,12.624833 178.565743,12.2236555 C179.510203,11.822478 181.217897,12 182.208129,12.802355 M175.104955,32.2423023 L175.104955,33 L165.800647,33 L165.800647,32.2423023 C167.551507,31.7067838 167.597279,29.8787873 167.597279,27.5606678 L167.597279,17.6626186 C167.597279,16.1472232 167.192776,15.4781019 165.35,14.541406 L165.35,13.7833392 L173.262179,12 L173.262179,27.5606678 C173.262179,30.0577856 173.487316,31.7964675 175.104955,32.2423023" id="Fill-13" fill="#000000"></path>
                    <g id="Group-17" transform="translate(184.350000, 12.000000)">
                        <mask id="mask-2" fill="white">
                            <use xlink:href="#path-1"></use>
                        </mask>
                        <g id="Clip-16"></g>
                        <path d="M23.8365217,4.44462857 C22.83,5.36391429 21.2546377,5.2330022 20.3350725,4.22523297 C19.8988406,3.69868352 19.722029,3.08655165 19.8115217,2.47296923 C19.853913,2.1222989 18.8046377,2.34169451 18.0597101,3.26098022 C19.1111594,4.35614505 19.6347101,5.80161758 19.6347101,7.37945275 C19.6347101,10.7530681 16.9205797,13.6001341 12.1082609,13.9508044 L12.1082609,13.1178264 C13.595942,12.8106725 14.5155072,11.4975626 14.5155072,7.37945275 C14.5155072,3.34837582 13.5086232,1.98993626 12.1082609,1.6845956 L12.1082609,0.851617582 C14.5155072,0.983617582 16.2227536,1.6845956 17.4912319,2.73588132 C18.7597101,0.895134066 20.5988406,0.326518681 21.606087,0.150276923 C22.4361594,-0.0241516484 23.4426812,0.23876044 24.0557246,0.940101099 C24.9756522,1.94641978 24.887971,3.52425495 23.8365217,4.44462857 M21.3419565,24.3762659 C21.3419565,24.3762659 21.1227536,27.7063648 17.1850725,30.2466396 L16.7912319,29.5460242 C18.9343478,27.8372769 18.6727536,25.6034308 18.6727536,25.6034308 C18.6727536,25.6034308 18.278913,23.2811011 15.0839855,23.2811011 L9.13,23.2811011 C7.29304348,23.2811011 2.17164738,23.018189 2.17164738,18.5504967 C2.17164738,18.5504967 2.12673913,14.5629363 6.37347826,12.9433978 C4.18543478,11.9787824 2.78434783,9.70033187 2.78434783,7.37945275 C2.78434783,4.04935385 5.49884058,1.15804615 10.3136957,0.851617582 L10.3136957,1.64107912 C8.69376812,1.94641978 7.90608696,3.2171011 7.90608696,7.37945275 C7.90608696,11.4975626 8.86804348,12.8106725 10.3136957,13.1178264 L10.3136957,13.9508044 C9.04268116,13.8623209 7.9934058,13.6875297 7.16115942,13.2933429 C5.97963768,13.8188044 3.3107971,17.4107275 7.94847826,17.4107275 L14.0767391,17.4107275 C17.0973913,17.4107275 22.1742029,17.7624857 21.3419565,24.3762659 M15.2582609,30.4663978 L15.6097101,31.1234967 C9.61333333,34.0148044 2.34630435,33.4882549 0.726376812,30.072211 C-0.542463768,27.4866066 1.07782609,24.7715407 3.09123188,23.1937055 L3.61695652,23.7188044 C1.95246377,25.8667055 4.31478261,28.4508593 4.31478261,28.4508593 C6.54775362,31.1670132 11.2756522,32.262178 15.2582609,30.4663978" id="Fill-15" fill="#000000" mask="url(#mask-2)"></path>
                    </g>
                </g>
            </g>
        </g>
    </g>
</svg>